<?xml version="1.0" encoding="utf-8"?>
<!-- Generator: Adobe Illustrator 16.0.0, SVG Export Plug-In . SVG Version: 6.00 Build 0)  -->
<!DOCTYPE svg PUBLIC "-//W3C//DTD SVG 1.1//EN" "http://www.w3.org/Graphics/SVG/1.1/DTD/svg11.dtd">
<svg version="1.1" id="Ebene_1" xmlns="http://www.w3.org/2000/svg" xmlns:xlink="http://www.w3.org/1999/xlink" x="0px" y="0px"
	 width="300px" height="300px" viewBox="0 0 300 300" enable-background="new 0 0 300 300" xml:space="preserve">
<g>
	<path fill="#FFFFFF" d="M254,220c0,13.807-11.193,25-25,25H33c-13.807,0-25-11.193-25-25V120c0-13.807,11.193-25,25-25h196
		c13.807,0,25,11.193,25,25V220z"/>
	<path fill="none" stroke="#000000" stroke-width="10" stroke-miterlimit="10" d="M254,220c0,13.807-11.193,25-25,25H33
		c-13.807,0-25-11.193-25-25V120c0-13.807,11.193-25,25-25h196c13.807,0,25,11.193,25,25V220z"/>
</g>
<line fill="none" stroke="#000000" stroke-width="9" stroke-miterlimit="10" x1="7" y1="136.552" x2="131.96" y2="170.138"/>
<line fill="none" stroke="#000000" stroke-width="9" stroke-miterlimit="10" x1="254.952" y1="136.718" x2="129.992" y2="170.138"/>
<ellipse fill="#FFFFFF" stroke="#000000" stroke-width="9" stroke-miterlimit="10" cx="253.314" cy="95.259" rx="39.686" ry="40.259"/>
<polygon points="259.804,105 247.153,105 243.145,67 263.807,67 "/>
<rect x="247" y="110" width="13" height="13"/>
</svg>
