<?xml version="1.0" encoding="utf-8"?>
<!-- Generator: Adobe Illustrator 16.0.0, SVG Export Plug-In . SVG Version: 6.00 Build 0)  -->
<!DOCTYPE svg PUBLIC "-//W3C//DTD SVG 1.1//EN" "http://www.w3.org/Graphics/SVG/1.1/DTD/svg11.dtd">
<svg version="1.1" id="Ebene_1" xmlns="http://www.w3.org/2000/svg" xmlns:xlink="http://www.w3.org/1999/xlink" x="0px" y="0px"
	 width="300px" height="300px" viewBox="0 0 300 300" enable-background="new 0 0 300 300" xml:space="preserve">
<path fill="#FFFFFF" stroke="#000000" stroke-width="8" stroke-linejoin="round" stroke-miterlimit="10" d="M250,149.25
	c0-10.572-1.646-20.758-4.687-30.323l30.727-13.014L251.13,62.56l-26.665,19.953c-13.85-15.444-32.433-26.302-53.469-30.797L175,19
	h-50l4.005,32.715c-20.84,4.453-39.276,15.268-53.085,30.488L49.377,62.036l-25.161,43.177l30.65,13.177
	C51.711,128.115,50,138.481,50,149.258c0,10.734,1.698,21.066,4.829,30.76l-30.87,13.072l24.91,43.352l26.932-20.152
	c13.835,15.303,32.338,26.551,53.263,31.009L125,281h50l-4.063-33.702c20.729-4.416,39.08-15.376,52.872-30.456l26.816,20.247
	l25.16-43.239l-30.793-13.269C248.237,170.729,250,160.188,250,149.25z"/>
<circle fill="#FFFFFF" stroke="#000000" stroke-width="8" stroke-linejoin="round" stroke-miterlimit="10" cx="150" cy="150" r="45.006"/>
</svg>
