<?xml version="1.0" encoding="UTF-8" standalone="no"?><!-- Created with Inkscape (http://www.inkscape.org/) -->
<svg
  xmlns:svg="http://www.w3.org/2000/svg" xmlns="http://www.w3.org/2000/svg" version="1.1" width="600" height="600" id="svg2" style="display:inline">
<desc>Archery Pictogram -- Based on 1972 Summer Olympics sports pictograms by Otl Aicher -- Grophic created by Detmar Owen</desc>
<path id="Frame" d="M 0,0 0,600 600,600 600,0 0,0 0,0 z M 7,7 593,7 593,593 7,593 7,7 z" style="fill:#000000;fill-opacity:1;stroke:none" />
<path id="Archer" d="M 118,0 C 100.9048,45.436299 91.43311,94.640027 91.15625,146 L 464,146 c 9.94113,0 18,8.05887 18,18 0,9.94113 -8.05887,18 -18,18 l -88,0 0,118 -91,0 0,-118 -192.5,0 c 7.1508,90.31274 42.77363,172.60917 97.90625,237.875 l 83.78125,-83.78125 50.90625,0 -229.625,229.625 c -7.02944,7.0294 -18.43931,7.0294 -25.46875,0 -7.02944,-7.0295 -7.02944,-18.40811 0,-25.4375 L 183.34375,426.9375 C 126.38941,359.81942 89.60466,275.04738 82.40625,182 L 78,182 c -9.94112,0 -18,-8.05887 -18,-18 0,-9.94113 8.05888,-18 18,-18 l 3.125,0 C 81.39436,94.73268 90.61004,45.556097 107.3125,0 L 118,0 z m 207.09375,336.09375 50.90625,0 95.03125,95.03125 0,121.875 c 0,9.9412 -8.05887,18 -18,18 -9.94113,0 -18,-8.0588 -18,-18 l 0,-106.96875 -109.9375,-109.9375 z M 364.5,66 C 383.55382,66 399,81.446176 399,100.5 399,119.55382 383.55382,135 364.5,135 345.44618,135 330,119.55382 330,100.5 330,81.446176 345.44618,66 364.5,66 z" style="fill:#000000;fill-opacity:1;stroke:none" />
</svg>