<?xml version="1.0" encoding="utf-8"?>
<!-- Generator: Adobe Illustrator 16.0.0, SVG Export Plug-In . SVG Version: 6.00 Build 0)  -->
<!DOCTYPE svg PUBLIC "-//W3C//DTD SVG 1.1//EN" "http://www.w3.org/Graphics/SVG/1.1/DTD/svg11.dtd">
<svg version="1.1" xmlns="http://www.w3.org/2000/svg" xmlns:xlink="http://www.w3.org/1999/xlink" x="0px" y="0px" width="300px"
	 height="300px" viewBox="0 0 300 300" enable-background="new 0 0 300 300" xml:space="preserve">
<g id="Ebene_1" display="none">
	<line display="inline" fill="none" stroke="#000000" stroke-miterlimit="10" x1="300" y1="150.5" x2="0" y2="150.5"/>
	<line display="inline" fill="none" stroke="#000000" stroke-miterlimit="10" x1="149.5" y1="0" x2="149.5" y2="301"/>
	<line display="inline" fill="none" stroke="#000000" stroke-miterlimit="10" x1="249.5" y1="1" x2="249.5" y2="302"/>
	<line display="inline" fill="none" stroke="#000000" stroke-miterlimit="10" x1="49.5" y1="0" x2="49.5" y2="301"/>
	<line display="inline" fill="none" stroke="#000000" stroke-miterlimit="10" x1="0" y1="50.5" x2="300" y2="50.5"/>
	<line display="inline" fill="none" stroke="#000000" stroke-miterlimit="10" x1="0" y1="250.5" x2="300" y2="250.5"/>
	<line display="inline" fill="none" stroke="#000000" stroke-miterlimit="10" x1="199.5" y1="0" x2="199.5" y2="301"/>
	<line display="inline" fill="none" stroke="#000000" stroke-miterlimit="10" x1="300" y1="100.5" x2="0" y2="100.5"/>
	<line display="inline" fill="none" stroke="#000000" stroke-miterlimit="10" x1="300" y1="200.5" x2="0" y2="200.5"/>
	<line display="inline" fill="none" stroke="#000000" stroke-miterlimit="10" x1="300" y1="80.5" x2="0" y2="80.5"/>
	<line display="inline" fill="none" stroke="#000000" stroke-miterlimit="10" x1="300" y1="120.5" x2="0" y2="120.5"/>
</g>
<g id="Ebene_2">
	<path fill="none" stroke="#000000" stroke-width="8" stroke-miterlimit="10" d="M107,100"/>
	<line fill="none" stroke="#000000" stroke-width="8" stroke-miterlimit="10" x1="107" y1="96" x2="107" y2="96"/>
	<line fill="none" stroke="#000000" stroke-width="8" stroke-miterlimit="10" x1="107" y1="96" x2="107" y2="96"/>
	<line fill="none" stroke="#000000" stroke-width="8" stroke-miterlimit="10" x1="107" y1="96" x2="107" y2="96"/>
	<line fill="none" stroke="#000000" stroke-width="8" stroke-miterlimit="10" x1="107" y1="96" x2="107" y2="96"/>
	<line fill="none" stroke="#000000" stroke-width="8" stroke-miterlimit="10" x1="107" y1="95" x2="107" y2="96"/>
	<polyline fill="none" stroke="#000000" stroke-width="8" stroke-miterlimit="10" points="107,138 107,173.695 27,116.196 
		107,58.695 107,95 	"/>
	<path fill="none" stroke="#000000" stroke-width="8" stroke-miterlimit="10" d="M107,138"/>
	<line fill="none" stroke="#000000" stroke-width="8" stroke-miterlimit="10" x1="107" y1="137" x2="107" y2="137"/>
	<line fill="none" stroke="#000000" stroke-width="8" stroke-miterlimit="10" x1="107" y1="137" x2="107" y2="137"/>
	<path fill="none" stroke="#000000" stroke-width="8" stroke-miterlimit="10" d="M107,137"/>
	<line fill="none" stroke="#000000" stroke-width="8" stroke-miterlimit="10" x1="107" y1="132" x2="107" y2="132"/>
	<path fill="none" stroke="#000000" stroke-width="8" stroke-miterlimit="10" d="M107,132"/>
	<line fill="none" stroke="#000000" stroke-width="8" stroke-miterlimit="10" x1="107" y1="124" x2="107" y2="124"/>
	<path fill="none" stroke="#000000" stroke-width="8" stroke-miterlimit="10" d="M109.25,92.088c0,0,254.558-31.922,126.97,150.217"
		/>
	<path fill="none" stroke="#000000" stroke-width="8" stroke-miterlimit="10" d="M104.309,142.08c0,0,184.375-20.465,131.604,99.225
		"/>
</g>
</svg>
