<?xml version="1.0" encoding="utf-8"?>
<!-- Generator: Adobe Illustrator 16.0.0, SVG Export Plug-In . SVG Version: 6.00 Build 0)  -->
<!DOCTYPE svg PUBLIC "-//W3C//DTD SVG 1.1//EN" "http://www.w3.org/Graphics/SVG/1.1/DTD/svg11.dtd">
<svg version="1.1" xmlns="http://www.w3.org/2000/svg" xmlns:xlink="http://www.w3.org/1999/xlink" x="0px" y="0px" width="400px"
	 height="400px" viewBox="0 0 400 400" enable-background="new 0 0 400 400" xml:space="preserve">
<g id="Ebene_1">
</g>
<g id="Ebene_2">
	<g>
		<path fill="none" stroke="#000000" stroke-width="10" stroke-miterlimit="10" d="M325,310c0,22-18,40-40,40H115c-22,0-40-18-40-40
			V90c0-22,18-40,40-40h170c22,0,40,18,40,40V310z"/>
	</g>
	<g>
		<path fill="none" stroke="#000000" stroke-width="8" stroke-miterlimit="10" d="M290,296c0,11-9,20-20,20H130c-11,0-20-9-20-20
			v-61c0-11,9-20,20-20h140c11,0,20,9,20,20V296z"/>
	</g>
	<line fill="none" stroke="#000000" stroke-width="8" stroke-miterlimit="10" x1="110" y1="251" x2="290" y2="251"/>
	<g>
		<path fill="none" stroke="#000000" stroke-width="10" stroke-miterlimit="10" d="M325,94c0,23.65-22.5,43-50,43H125
			c-27.5,0-50-19.35-50-43s22.5-43,50-43h150C302.5,51,325,70.35,325,94z"/>
	</g>
	<rect x="143.5" y="50.5" fill="none" stroke="#000000" stroke-width="5" stroke-miterlimit="10" width="13" height="136"/>
	<rect x="243.5" y="50.5" fill="none" stroke="#000000" stroke-width="5" stroke-miterlimit="10" width="13" height="136"/>
</g>
</svg>
