<?xml version="1.0" encoding="UTF-8" standalone="no"?>
<!DOCTYPE svg PUBLIC "-//W3C//DTD SVG 1.1//EN" "http://www.w3.org/Graphics/SVG/1.1/DTD/svg11.dtd">
<svg width="100%" height="100%" viewBox="0 0 400 400" version="1.1" xmlns="http://www.w3.org/2000/svg" xmlns:xlink="http://www.w3.org/1999/xlink" xml:space="preserve" xmlns:serif="http://www.serif.com/" style="fill-rule:evenodd;clip-rule:evenodd;stroke-miterlimit:10;">
    <g id="Ebene_2">
        <g>
            <path d="M325,310C325,332 307,350 285,350L115,350C93,350 75,332 75,310L75,90C75,68 93,50 115,50L285,50C307,50 325,68 325,90L325,310Z" style="fill:none;fill-rule:nonzero;stroke:black;stroke-width:10px;"/>
            <path d="M290,296C290,307 281,316 270,316L130,316C119,316 110,307 110,296L110,235C110,224 119,215 130,215L270,215C281,215 290,224 290,235L290,296Z" style="fill:none;fill-rule:nonzero;stroke:black;stroke-width:8px;"/>
            <path d="M110,251L290,251" style="fill:none;fill-rule:nonzero;stroke:black;stroke-width:8px;"/>
            <path d="M325,94C325,117.65 302.5,137 275,137L125,137C97.5,137 75,117.65 75,94C75,70.35 97.5,51 125,51L275,51C302.5,51 325,70.35 325,94Z" style="fill:none;fill-rule:nonzero;stroke:black;stroke-width:10px;"/>
            <rect x="143.5" y="50.5" width="13" height="136" style="fill:none;stroke:black;stroke-width:5px;"/>
            <rect x="243.5" y="50.5" width="13" height="136" style="fill:none;stroke:black;stroke-width:5px;"/>
        </g>
    </g>
</svg>
